#!OML:ASF X:\für Bonn\!DataBase\2005_08_11_Bastian_Final\c3d\Bastian.ASF
:FULLY-SPECIFIED
:DEGREES
631
root -0.263669 1.12534 26.107 -995.526 -1.82203 -900.9
lowerback 4.63334 -1.9939 -0.114913
upperback 8.74011 -3.32461 -0.306688
thorax 6.49547 -1.9801 -0.329324
lowerneck -22.1217 -0.75892 5.9228
upperneck 16.7903 -2.47379 -1.93057
head 8.78772 -0.954418 -1.95733
rclavicle 6.36111e-015 8.74653e-015
rhumerus -72.6236 64.9876 -123.855
rradius 28.8659
rwrist -14.1443
rhand -15.2578 -1.47959
rfingers 7.12502
rthumb 10.9161 -31.1758
lclavicle 6.36111e-015 8.74653e-015
lhumerus -221.492 -135.432 271.622
lradius 19.3253
lwrist 28.9737
lhand -11.0305 -2.94233
lfingers 7.12502
lthumb 14.9911 26.495
rfemur -5.11144 3.31212 22.2191
rtibia 31.7092
rfoot -8.78759 -24.0134
rtoes -10.8934
lfemur 1.08362 2.88752 -17.2117
ltibia 19.6553
lfoot -6.39182 14.0857
ltoes 8.48402
632
root -0.263765 1.12467 26.1071 -995.516 -1.8236 -900.891
lowerback 4.6019 -2.02322 -0.133502
upperback 8.71383 -3.36012 -0.303202
thorax 6.48618 -1.99702 -0.316193
lowerneck -22.2866 -0.70403 6.02492
upperneck 16.6431 -2.44134 -1.94055
head 8.76556 -0.938541 -1.97276
rclavicle -1.90833e-014 2.0276e-014
rhumerus -73.2021 65.1532 -124.476
rradius 28.8983
rwrist -14.325
rhand -15.2904 -1.51182
rfingers 7.12502
rthumb 10.8846 -31.2097
lclavicle -1.90833e-014 2.0276e-014
lhumerus -221.482 -135.478 271.621
lradius 19.2135
lwrist 28.9507
lhand -11.0385 -2.89389
lfingers 7.12502
lthumb 14.9834 26.544
rfemur -5.12109 3.30044 22.2143
rtibia 31.7136
rfoot -8.76907 -24.0348
rtoes -10.9971
lfemur 1.07325 2.89187 -17.2136
ltibia 19.6438
lfoot -6.39362 14.0897
ltoes 8.42043
633
root -0.264433 1.12468 26.1076 -995.493 -1.82334 -900.882
lowerback 4.55857 -2.04502 -0.138383
upperback 8.68146 -3.38404 -0.302452
thorax 6.47615 -2.00647 -0.313709
lowerneck -22.4435 -0.65847 6.14215
upperneck 16.4822 -2.42156 -1.97136
head 8.7362 -0.93023 -1.99909
rclavicle -1.74931e-014 3.53837e-014
rhumerus -73.5633 65.2428 -124.868
rradius 28.9056
rwrist -14.418
rhand -15.2715 -1.5438
rfingers 7.12502
rthumb 10.9028 -31.2407
lclavicle -1.74931e-014 3.53837e-014
lhumerus -221.511 -135.506 271.629
lradius 19.1507
lwrist 28.9376
lhand -11.0315 -2.88874
lfingers 7.12502
lthumb 14.9901 26.5487
rfemur -5.14962 3.28566 22.2073
rtibia 31.7162
rfoot -8.78305 -24.0621
rtoes -11.121
lfemur 1.05415 2.8972 -17.2111
ltibia 19.6347
lfoot -6.4093 14.0911
ltoes 8.71614
634
root -0.264497 1.12398 26.1083 -995.493 -1.82459 -900.871
lowerback 4.53846 -2.0643 -0.14284
upperback 8.66271 -3.40609 -0.314075
thorax 6.46684 -2.01568 -0.323722
lowerneck -22.6091 -0.614303 6.25994
upperneck 16.3324 -2.41111 -1.96845
head 8.71229 -0.921683 -2.01532
rclavicle -1.90833e-014 -2.78299e-014
rhumerus -74.0627 65.3683 -125.422
rradius 28.9558
rwrist -14.6186
rhand -15.2823 -1.61326
rfingers 7.12502
rthumb 10.8925 -31.3107
lclavicle -1.90833e-014 -2.78299e-014
lhumerus -221.502 -135.567 271.561
lradius 19.1088
lwrist 28.8632
lhand -10.9787 -2.87788
lfingers 7.12502
lthumb 15.041 26.5558
rfemur -5.14528 3.31606 22.2064
rtibia 31.7221
rfoot -8.87384 -24.1127
rtoes -10.9729
lfemur 1.0566 2.90088 -17.212
ltibia 19.6218
lfoot -6.36582 14.1029
ltoes 8.54759
635
root -0.264533 1.12396 26.1086 -995.471 -1.8251 -900.872
lowerback 4.48253 -2.0857 -0.157906
upperback 8.64298 -3.43063 -0.316737
thorax 6.47805 -2.02655 -0.320438
lowerneck -22.7892 -0.558631 6.37002
upperneck 16.1891 -2.38461 -1.96188
head 8.69394 -0.905612 -2.02713
rclavicle 3.18055e-015 2.54444e-014
rhumerus -74.6823 65.5458 -126.087
rradius 29.0061
rwrist -14.8446
rhand -15.2894 -1.66873
rfingers 7.12502
rthumb 10.8856 -31.3666
lclavicle 3.18055e-015 2.54444e-014
lhumerus -221.506 -135.569 271.57
lradius 19.0119
lwrist 28.9105
lhand -10.9836 -2.92507
lfingers 7.12502
lthumb 15.0363 26.5089
rfemur -5.17377 3.3187 22.2045
rtibia 31.7284
rfoot -8.88789 -24.1505
rtoes -10.9522
lfemur 1.04599 2.85897 -17.2166
ltibia 19.6066
lfoot -6.44345 14.131
ltoes 8.67674
636
root -0.265237 1.12322 26.1086 -995.482 -1.8487 -900.849
lowerback 4.46805 -2.10948 -0.178586
upperback 8.62431 -3.45814 -0.33704
thorax 6.46598 -2.03914 -0.330253
lowerneck -22.9089 -0.521848 6.48748
upperneck 16.0088 -2.38074 -1.95718
head 8.65136 -0.900473 -2.04241
rclavicle 1.43125e-014 4.37326e-015
rhumerus -75.1412 65.649 -126.607
rradius 29.0319
rwrist -15.0142
rhand -15.2933 -1.72287
rfingers 7.12502
rthumb 10.8818 -31.4209
lclavicle 1.43125e-014 4.37326e-015
lhumerus -221.533 -135.582 271.559
lradius 18.9519
lwrist 28.902
lhand -10.9305 -2.99258
lfingers 7.12502
lthumb 15.0874 26.4376
rfemur -5.16 3.33544 22.1738
rtibia 31.7384
rfoot -8.94811 -24.1791
rtoes -11.0095
lfemur 1.05818 2.90817 -17.2361
ltibia 19.5868
lfoot -6.38425 14.1094
ltoes 8.58093
637
root -0.26531 1.12319 26.1088 -995.471 -1.84908 -900.85
lowerback 4.43611 -2.13363 -0.209524
upperback 8.60398 -3.48851 -0.320698
thorax 6.46507 -2.05527 -0.297292
lowerneck -23.0758 -0.469586 6.55387
upperneck 15.8527 -2.34758 -1.9323
head 8.62729 -0.882271 -2.03957
rclavicle 3.18055e-014 -3.97569e-016
rhumerus -75.6381 65.8043 -127.11
rradius 29.0675
rwrist -15.1563
rhand -15.2769 -1.76215
rfingers 7.12502
rthumb 10.8977 -31.4594
lclavicle 3.18055e-014 -3.97569e-016
lhumerus -221.484 -135.702 271.518
lradius 18.8425
lwrist 28.795
lhand -10.8653 -3.07552
lfingers 7.12502
lthumb 15.1502 26.3499
rfemur -5.18028 3.27308 22.1605
rtibia 31.7455
rfoot -8.92157 -24.1599
rtoes -11.0268
lfemur 1.05393 2.86551 -17.2403
ltibia 19.5735
lfoot -6.4445 14.1303
ltoes 8.78035
638
root -0.265173 1.12267 26.1095 -995.461 -1.84845 -900.84
lowerback 4.3997 -2.15339 -0.224701
upperback 8.58463 -3.51178 -0.317665
thorax 6.46602 -2.06613 -0.287075
lowerneck -23.216 -0.432238 6.65405
upperneck 15.6679 -2.33474 -1.94956
head 8.58674 -0.876861 -2.05853
rclavicle 3.33958e-014 -8.34896e-015
rhumerus -76.0387 65.9154 -127.545
rradius 29.0821
rwrist -15.2795
rhand -15.2629 -1.79795
rfingers 7.12502
rthumb 10.9112 -31.4944
lclavicle 3.33958e-014 -8.34896e-015
lhumerus -221.49 -135.751 271.5
lradius 18.7864
lwrist 28.7531
lhand -10.7894 -3.17537
lfingers 7.12502
lthumb 15.2234 26.2445
rfemur -5.19064 3.27239 22.162
rtibia 31.7523
rfoot -8.96815 -24.1899
rtoes -11.1098
lfemur 1.05016 2.86989 -17.2381
ltibia 19.5606
lfoot -6.41604 14.1346
ltoes 8.70553
639
root -0.265559 1.12267 26.1098 -995.449 -1.85098 -900.839
lowerback 4.35829 -2.17 -0.225086
upperback 8.56388 -3.52925 -0.330802
thorax 6.46636 -2.07222 -0.301957
lowerneck -23.3475 -0.372293 6.80274
upperneck 15.4945 -2.30527 -1.97098
head 8.54892 -0.86058 -2.08445
rclavicle 2.70347e-014 0
rhumerus -76.548 66.03 -128.117
rradius 29.1183
rwrist -15.4695
rhand -15.2742 -1.84917
rfingers 7.12502
rthumb 10.9003 -31.5462
lclavicle 2.70347e-014 0
lhumerus -221.479 -135.789 271.472
lradius 18.6807
lwrist 28.7099
lhand -10.7171 -3.29822
lfingers 7.12502
lthumb 15.293 26.1164
rfemur -5.20697 3.25474 22.1522
rtibia 31.7561
rfoot -8.96908 -24.2057
rtoes -11.203
lfemur 1.03779 2.92973 -17.2332
ltibia 19.5522
lfoot -6.3634 14.0956
ltoes 8.75923
640
root -0.266087 1.12243 26.1101 -995.438 -1.85019 -900.829
lowerback 4.33011 -2.19388 -0.225461
upperback 8.53314 -3.55597 -0.339963
thorax 6.44864 -2.08277 -0.311665
lowerneck -23.4672 -0.319364 6.91368
upperneck 15.3308 -2.27992 -1.95299
head 8.51329 -0.84365 -2.09129
rclavicle 4.77083e-015 3.29983e-014
rhumerus -76.8881 66.0885 -128.494
rradius 29.1234
rwrist -15.5327
rhand -15.2545 -1.8712
rfingers 7.12502
rthumb 10.9193 -31.5673
lclavicle 4.77083e-015 3.29983e-014
lhumerus -221.502 -135.851 271.443
lradius 18.6325
lwrist 28.6505
lhand -10.6585 -3.40281
lfingers 7.12502
lthumb 15.3494 26.0075
rfemur -5.22157 3.29116 22.1519
rtibia 31.7626
rfoot -9.00221 -24.2567
rtoes -11.1525
lfemur 1.02856 2.87565 -17.2395
ltibia 19.5408
lfoot -6.41986 14.1253
ltoes 8.9448
641
root -0.266005 1.12189 26.1102 -995.428 -1.84978 -900.822
lowerback 4.29574 -2.21667 -0.256835
upperback 8.51259 -3.58396 -0.328136
thorax 6.44873 -2.09742 -0.283316
lowerneck -23.5768 -0.276157 6.99954
upperneck 15.1369 -2.25407 -1.95899
head 8.46542 -0.831815 -2.10173
rclavicle -2.54444e-014 9.54166e-015
rhumerus -77.3682 66.2168 -128.989
rradius 29.1535
rwrist -15.6668
rhand -15.2383 -1.90818
rfingers 7.12502
rthumb 10.9349 -31.6034
lclavicle -2.54444e-014 9.54166e-015
lhumerus -221.48 -135.964 271.419
lradius 18.5417
lwrist 28.5845
lhand -10.5991 -3.5063
lfingers 7.12502
lthumb 15.4066 25.8996
rfemur -5.22903 3.29415 22.1533
rtibia 31.765
rfoot -9.04732 -24.2939
rtoes -11.2077
lfemur 1.02254 2.8793 -17.2379
ltibia 19.5341
lfoot -6.42551 14.128
ltoes 8.95704
642
root -0.265462 1.12188 26.111 -995.426 -1.84989 -900.8
lowerback 4.25061 -2.23856 -0.266244
upperback 8.51299 -3.61129 -0.339677
thorax 6.47476 -2.11036 -0.292978
lowerneck -23.7139 -0.219341 7.12491
upperneck 14.9476 -2.22439 -1.96565
head 8.42356 -0.815454 -2.11847
rclavicle -2.70347e-014 1.82882e-014
rhumerus -77.8468 66.336 -129.521
rradius 29.2042
rwrist -15.8252
rhand -15.307 -1.96698
rfingers 7.12502
rthumb 10.8686 -31.6657
lclavicle -2.70347e-014 1.82882e-014
lhumerus -221.468 -135.964 271.38
lradius 18.4885
lwrist 28.5639
lhand -10.5659 -3.55893
lfingers 7.12502
lthumb 15.4386 25.8445
rfemur -5.23652 3.22941 22.1439
rtibia 31.7692
rfoot -9.02201 -24.2861
rtoes -11.2844
lfemur 1.01584 2.96126 -17.2203
ltibia 19.5252
lfoot -6.32002 14.0473
ltoes 8.76399
643
root -0.266114 1.12187 26.1114 -995.403 -1.84963 -900.791
lowerback 4.20977 -2.25733 -0.260982
upperback 8.4755 -3.63015 -0.344407
thorax 6.45692 -2.11616 -0.301507
lowerneck -23.7796 -0.185031 7.20402
upperneck 14.7501 -2.20729 -1.95616
head 8.36706 -0.806165 -2.12309
rclavicle 1.59028e-015 2.3059e-014
rhumerus -78.2634 66.3995 -129.963
rradius 29.2189
rwrist -15.9276
rhand -15.2821 -1.9921
rfingers 7.12502
rthumb 10.8927 -31.6896
lclavicle 1.59028e-015 2.3059e-014
lhumerus -221.477 -136.046 271.37
lradius 18.3937
lwrist 28.4994
lhand -10.5271 -3.63409
lfingers 7.12502
lthumb 15.476 25.7665
rfemur -5.25822 3.26327 22.1407
rtibia 31.7758
rfoot -9.12187 -24.3272
rtoes -11.2075
lfemur 0.995759 2.89209 -17.232
ltibia 19.5123
lfoot -6.38691 14.0913
ltoes 8.96118
